# xmcd
#
# Track frame offsets:
#	150
#	17953
#	32206
#	46843
#	63017
#	75631
#	89656
#	102256
#	118035
#	133679
#	147967
#	164118
#	184055
#	204446
#	217582
#
# Disc length: 3168 seconds
#
# Revision: 0
# Processed by: cddbd v1.5.2PL0 Copyright (c) Steve Scherf et al.
# Submitted via: dBpowerAMP V4.0
#
DISCID=d00c5e0f
DTITLE=Zé Mulato e Cassiano - Sertão Ainda é Sertão
DYEAR=2009
DGENRE=Country
TTITLE0=01 Sertão ainda é sertão
TTITLE1=02 A morte tá caducando
TTITLE2=03 As pedras podem mudar
TTITLE3=04 Como Deus quiser
TTITLE4=05 Ciclo vicioso
TTITLE5=06 Desabafando
TTITLE6=06 Desabafando
TTITLE7=08 O doutor dos anéis
TTITLE8=09 Sem amor
TTITLE9=10 Rompendo laço
TTITLE10=11 O especialista
TTITLE11=12 Viola proteção
TTITLE12=13 Calçadão
TTITLE13=14 Ninho de marimbondo
TTITLE14=15 Recaída 
EXTD=01 Sertão ainda é sertão\n02 A morte tá caducando\n03 As pedras podem mudar\n04 Como Deus quiser\n05 Ciclo vicioso\n06 Desabafando\n07 Parta de uma vez\n08 O doutor dos anéis\n09 Sem amor\n10 Rompendo laço\n11 O especialista\n12 Viola proteção\n13 
EXTD=Calçadão\n14 Ninho de marimbondo\n15 Recaída 
EXTT0=
EXTT1=
EXTT2=
EXTT3=
EXTT4=
EXTT5=
EXTT6=
EXTT7=
EXTT8=
EXTT9=
EXTT10=
EXTT11=
EXTT12=
EXTT13=
EXTT14=
PLAYORDER=
